<?xml version="1.0" encoding="UTF-8" standalone="no"?>
<!-- Created with Inkscape (http://www.inkscape.org/) -->

<svg
   xmlns:dc="http://purl.org/dc/elements/1.1/"
   xmlns:cc="http://creativecommons.org/ns#"
   xmlns:rdf="http://www.w3.org/1999/02/22-rdf-syntax-ns#"
   xmlns:svg="http://www.w3.org/2000/svg"
   xmlns="http://www.w3.org/2000/svg"
   xmlns:sodipodi="http://sodipodi.sourceforge.net/DTD/sodipodi-0.dtd"
   xmlns:inkscape="http://www.inkscape.org/namespaces/inkscape"
   width="389.3566"
   height="71.292961"
   viewBox="0 0 389.35659 71.292959"
   id="svg2"
   version="1.1"
   inkscape:version="0.91 r13725"
   sodipodi:docname="RadccLogoRed.svg">
  <defs
     id="defs4" />
  <sodipodi:namedview
     id="base"
     pagecolor="#ffffff"
     bordercolor="#666666"
     borderopacity="1.0"
     inkscape:pageopacity="0.0"
     inkscape:pageshadow="2"
     inkscape:zoom="1.4"
     inkscape:cx="82.74598"
     inkscape:cy="-229.70217"
     inkscape:document-units="px"
     inkscape:current-layer="layer1"
     showgrid="true"
     inkscape:window-width="1680"
     inkscape:window-height="988"
     inkscape:window-x="-8"
     inkscape:window-y="-8"
     inkscape:window-maximized="1"
     showborder="false"
     fit-margin-top="3"
     units="px"
     fit-margin-left="3"
     fit-margin-right="3"
     fit-margin-bottom="3"
     inkscape:showpageshadow="false">
    <inkscape:grid
       type="xygrid"
       id="grid3432"
       originx="310.52232"
       originy="-1012.6803" />
  </sodipodi:namedview>
  <metadata
     id="metadata7">
    <rdf:RDF>
      <cc:Work
         rdf:about="">
        <dc:format>image/svg+xml</dc:format>
        <dc:type
           rdf:resource="http://purl.org/dc/dcmitype/StillImage" />
        <dc:title></dc:title>
      </cc:Work>
    </rdf:RDF>
  </metadata>
  <g
     inkscape:label="Layer 1"
     inkscape:groupmode="layer"
     id="layer1"
     transform="translate(310.52232,31.611001)">
    <path
       inkscape:connector-curvature="0"
       id="path3351"
       style="font-style:normal;font-weight:normal;font-size:medium;line-height:125%;font-family:sans-serif;letter-spacing:0px;word-spacing:0px;fill:#ff0000;fill-opacity:1;stroke:#000000;stroke-width:1;stroke-linecap:butt;stroke-linejoin:miter;stroke-miterlimit:4;stroke-dasharray:none;stroke-opacity:1"
       d="m -262.74554,35.362209 -9.34061,0 -18.09971,-25.19389 -10.14019,0 0,25.19389 -7.19627,0 0,-63.36775 15.15578,0 q 4.90654,0 8.17758,0.76604 3.27102,0.72348 5.88785,2.63854 2.94393,2.17042 4.57944,5.4899 1.67187,3.2769 1.67187,8.3412 0,6.8517196 -2.94393,11.4904796 -2.94393,4.59616 -8.10489,6.93682 l 20.35308,27.7047704 z m -16.82764,-45.53625 q 0,-2.72366 -0.83593,-4.80898 -0.79958,-2.12786 -2.68951,-3.57482 -1.56283,-1.23413 -3.70717,-1.70228 -2.14434,-0.51067 -5.05193,-0.51067 l -8.46833,0 0,23.9171696 7.26896,0 q 3.4164,0 5.96054,-0.68092 2.54414,-0.72347 4.32503,-2.63856 1.63552,-1.7874 2.39876,-4.08549 0.79958,-2.34066 0.79958,-5.9154496 z" />
    <path
       inkscape:connector-curvature="0"
       id="path3353"
       style="font-style:normal;font-weight:normal;font-size:medium;line-height:125%;font-family:sans-serif;letter-spacing:0px;word-spacing:0px;fill:#ff0000;fill-opacity:1;stroke:#000000;stroke-width:1;stroke-linecap:butt;stroke-linejoin:miter;stroke-miterlimit:4;stroke-dasharray:none;stroke-opacity:1"
       d="m -247.83762,-9.8219414 q 0,5.33203 -2.73437,8.41797 -2.73438,3.08593 -7.32422,3.08593 -4.62891,0 -7.36328,-3.08593 -2.71484,-3.08594 -2.71484,-8.41797 0,-5.3320296 2.71484,-8.4179696 2.73437,-3.10547 7.36328,-3.10547 4.58984,0 7.32422,3.10547 2.73437,3.08594 2.73437,8.4179696 z m -3.78906,0 q 0,-4.2382796 -1.66015,-6.2890596 -1.66016,-2.07032 -4.60938,-2.07032 -2.98828,0 -4.64844,2.07032 -1.64062,2.05078 -1.64062,6.2890596 0,4.10156 1.66015,6.23047 1.66016,2.10937 4.62891,2.10937 2.92969,0 4.58984,-2.08984 1.67969,-2.10938 1.67969,-6.25 z" />
    <path
       inkscape:connector-curvature="0"
       id="path3355"
       style="font-style:normal;font-weight:normal;font-size:medium;line-height:125%;font-family:sans-serif;letter-spacing:0px;word-spacing:0px;fill:#ff0000;fill-opacity:1;stroke:#000000;stroke-width:1;stroke-linecap:butt;stroke-linejoin:miter;stroke-miterlimit:4;stroke-dasharray:none;stroke-opacity:1"
       d="m -226.00168,-0.2906914 q -1.83594,0.8789 -3.49609,1.36719 -1.64063,0.48828 -3.4961,0.48828 -2.36328,0 -4.33593,-0.6836 -1.97266,-0.70312 -3.37891,-2.10937 -1.42578,-1.40625 -2.20703,-3.55469 -0.78125,-2.14844 -0.78125,-5.01953 0,-5.3515596 2.92969,-8.3984396 2.94922,-3.04687 7.77343,-3.04687 1.875,0 3.67188,0.52734 1.81641,0.52734 3.32031,1.28906 l 0,4.08203 -0.19531,0 q -1.67969,-1.30859 -3.47656,-2.01171 -1.77735,-0.70313 -3.47657,-0.70313 -3.125,0 -4.9414,2.10938 -1.79688,2.08984 -1.79688,6.1523396 0,3.94531 1.75782,6.07422 1.77734,2.10937 4.98046,2.10937 1.11329,0 2.26563,-0.29297 1.15234,-0.29296 2.07031,-0.76171 0.80078,-0.41016 1.50391,-0.85938 0.70312,-0.46875 1.11328,-0.80078 l 0.19531,0 0,4.04297 z" />
    <path
       inkscape:connector-curvature="0"
       id="path3357"
       style="font-style:normal;font-weight:normal;font-size:medium;line-height:125%;font-family:sans-serif;letter-spacing:0px;word-spacing:0px;fill:#ff0000;fill-opacity:1;stroke:#000000;stroke-width:1;stroke-linecap:butt;stroke-linejoin:miter;stroke-miterlimit:4;stroke-dasharray:none;stroke-opacity:1"
       d="m -203.0134,-9.4508514 -16.07422,0 q 0,2.01172 0.60547,3.51563 0.60547,1.48437 1.66016,2.4414 1.01562,0.9375 2.40234,1.40625 1.40625,0.46875 3.08594,0.46875 2.22656,0 4.47266,-0.8789 2.26562,-0.89844 3.22265,-1.75782 l 0.19532,0 0,4.00391 q -1.85547,0.78125 -3.78907,1.30859 -1.93359,0.52735 -4.0625,0.52735 -5.42968,0 -8.47656,-2.92969 -3.04687,-2.94922 -3.04687,-8.35937 0,-5.3515696 2.91015,-8.4960996 2.92969,-3.14453 7.69531,-3.14453 4.41407,0 6.79688,2.57813 2.40234,2.57812 2.40234,7.32421 l 0,1.9921896 z m -3.57422,-2.8124996 q -0.0195,-2.89062 -1.46484,-4.47265 -1.42578,-1.58204 -4.35547,-1.58204 -2.94922,0 -4.70703,1.73829 -1.73828,1.73828 -1.97266,4.3164 l 12.5,0 z" />
    <path
       inkscape:connector-curvature="0"
       id="path3359"
       style="font-style:normal;font-weight:normal;font-size:medium;line-height:125%;font-family:sans-serif;letter-spacing:0px;word-spacing:0px;fill:#ff0000;fill-opacity:1;stroke:#000000;stroke-width:1;stroke-linecap:butt;stroke-linejoin:miter;stroke-miterlimit:4;stroke-dasharray:none;stroke-opacity:1"
       d="m -181.86105,-5.2125714 q 0,2.98828 -2.48047,4.90235 -2.46094,1.91406 -6.73828,1.91406 -2.42188,0 -4.45313,-0.56641 -2.01172,-0.58593 -3.3789,-1.26953 l 0,-4.12109 0.19531,0 q 1.73828,1.30859 3.86719,2.08984 2.1289,0.76172 4.08203,0.76172 2.42187,0 3.78906,-0.78125 1.36719,-0.78125 1.36719,-2.46094 0,-1.28906 -0.74219,-1.95312 -0.74219,-0.66406 -2.85156,-1.13281 -0.78125,-0.17579 -2.05078,-0.41016 -1.25,-0.23438 -2.28516,-0.50781 -2.87109,-0.76172 -4.08203,-2.2265696 -1.19141,-1.48437 -1.19141,-3.63281 0,-1.34765 0.54688,-2.53906 0.5664,-1.19141 1.69922,-2.12891 1.09375,-0.91797 2.77343,-1.44531 1.69922,-0.54687 3.78907,-0.54687 1.95312,0 3.94531,0.48828 2.01172,0.46875 3.33984,1.15234 l 0,3.92578 -0.19531,0 q -1.40625,-1.03515 -3.41797,-1.73828 -2.01172,-0.72266 -3.94531,-0.72266 -2.01172,0 -3.39844,0.78125 -1.38672,0.76172 -1.38672,2.28516 0,1.34766 0.83985,2.03125 0.82031,0.68359 2.65625,1.11328 1.01562,0.23438 2.26562,0.46875 1.26953,0.23438 2.10938,0.42969 2.55859,0.58594 3.94531,2.0117196 1.38672,1.44531 1.38672,3.82812 z" />
    <path
       inkscape:connector-curvature="0"
       id="path3361"
       style="font-style:normal;font-weight:normal;font-size:medium;line-height:125%;font-family:sans-serif;letter-spacing:0px;word-spacing:0px;fill:#ff0000;fill-opacity:1;stroke:#000000;stroke-width:1;stroke-linecap:butt;stroke-linejoin:miter;stroke-miterlimit:4;stroke-dasharray:none;stroke-opacity:1"
       d="m -165.25949,0.8811786 q -1.03516,0.27344 -2.26563,0.44922 -1.21093,0.17578 -2.16796,0.17578 -3.33985,0 -5.07813,-1.79687 -1.73828,-1.79688 -1.73828,-5.76172 l 0,-11.6015596 -2.48047,0 0,-3.08594 2.48047,0 0,-6.26953 3.67187,0 0,6.26953 7.57813,0 0,3.08594 -7.57813,0 0,9.9413996 q 0,1.71875 0.0781,2.69532 0.0781,0.95703 0.54687,1.79687 0.42969,0.78125 1.17188,1.15234 0.76172,0.35157 2.30469,0.35157 0.89843,0 1.875,-0.25391 0.97656,-0.27344 1.40625,-0.44922 l 0.19531,0 0,3.30078 z" />
    <path
       inkscape:connector-curvature="0"
       id="path3363"
       style="font-style:normal;font-weight:normal;font-size:medium;line-height:125%;font-family:sans-serif;letter-spacing:0px;word-spacing:0px;fill:#ff0000;fill-opacity:1;stroke:#000000;stroke-width:1;stroke-linecap:butt;stroke-linejoin:miter;stroke-miterlimit:4;stroke-dasharray:none;stroke-opacity:1"
       d="m -142.54465,-9.4508514 -16.07422,0 q 0,2.01172 0.60547,3.51563 0.60547,1.48437 1.66016,2.4414 1.01562,0.9375 2.40234,1.40625 1.40625,0.46875 3.08594,0.46875 2.22656,0 4.47266,-0.8789 2.26562,-0.89844 3.22265,-1.75782 l 0.19532,0 0,4.00391 q -1.85547,0.78125 -3.78907,1.30859 -1.93359,0.52735 -4.0625,0.52735 -5.42968,0 -8.47656,-2.92969 -3.04687,-2.94922 -3.04687,-8.35937 0,-5.3515696 2.91015,-8.4960996 2.92969,-3.14453 7.69531,-3.14453 4.41407,0 6.79688,2.57813 2.40234,2.57812 2.40234,7.32421 l 0,1.9921896 z m -3.57422,-2.8124996 q -0.0195,-2.89062 -1.46484,-4.47265 -1.42578,-1.58204 -4.35547,-1.58204 -2.94922,0 -4.70703,1.73829 -1.73828,1.73828 -1.97266,4.3164 l 12.5,0 z" />
    <path
       inkscape:connector-curvature="0"
       id="path3365"
       style="font-style:normal;font-weight:normal;font-size:medium;line-height:125%;font-family:sans-serif;letter-spacing:0px;word-spacing:0px;fill:#ff0000;fill-opacity:1;stroke:#000000;stroke-width:1;stroke-linecap:butt;stroke-linejoin:miter;stroke-miterlimit:4;stroke-dasharray:none;stroke-opacity:1"
       d="m -123.36496,-16.736001 -0.19531,0 q -0.82031,-0.19532 -1.60156,-0.27344 -0.76172,-0.0977 -1.81641,-0.0977 -1.69922,0 -3.28125,0.76172 -1.58203,0.74219 -3.04688,1.93359 l 0,15.4882896 -3.67187,0 0,-21.8164096 3.67187,0 0,3.22266 q 2.1875,-1.75782 3.84766,-2.48047 1.67969,-0.74219 3.41797,-0.74219 0.95703,0 1.38672,0.0586 0.42969,0.0391 1.28906,0.17578 l 0,3.76954 z" />
    <path
       inkscape:connector-curvature="0"
       id="path3367"
       style="font-style:normal;font-weight:normal;font-size:medium;line-height:125%;font-family:sans-serif;letter-spacing:0px;word-spacing:0px;fill:#ff0000;fill-opacity:1;stroke:#000000;stroke-width:1;stroke-linecap:butt;stroke-linejoin:miter;stroke-miterlimit:4;stroke-dasharray:none;stroke-opacity:1"
       d="m -93.9509,-22.185221 q 0,-1.85547 -1.11328,-2.91016 -1.09375,-1.07422 -2.8125,-1.07422 -1.79687,0 -2.92969,1.21094 -1.13281,1.19141 -1.13281,2.92969 0,1.46484 0.76172,2.59765 0.78125,1.13282 3.33984,2.67578 1.91407,-0.68359 2.89063,-1.99218 0.99609,-1.32813 0.99609,-3.4375 z m 3.78907,17.1093696 -9.33594,-9.1015596 q -0.60547,0.29297 -1.21094,0.78125 -0.60547,0.46875 -1.21094,1.28906 -0.54687,0.76172 -0.89843,1.83594 -0.35157,1.0742196 -0.35157,2.4218696 0,2.85157 1.66016,4.60938 1.67969,1.73828 4.74609,1.73828 1.81641,0 3.59375,-0.87891 1.79688,-0.89843 3.00782,-2.69531 z m 5.8789,-11.6015596 0,1.875 q 0,1.875 -0.48828,4.21875 -0.48828,2.3437496 -1.66016,4.4726596 l 7.38282,7.1875 -4.80469,0 -4.47266,-4.375 q -2.24609,2.77343 -4.58984,3.88671 -2.34375,1.09375 -4.82422,1.09375 -4.0625,0 -6.75781,-2.36328 -2.67578,-2.38281 -2.67578,-6.23047 0,-1.79687 0.50781,-3.1054596 0.50781,-1.3086 1.19141,-2.26563 0.68359,-0.91797 1.69921,-1.71875 1.01563,-0.82031 2.05079,-1.42578 -2.14844,-1.40625 -3.10547,-2.83203 -0.9375,-1.42578 -0.9375,-3.59375 0,-1.3086 0.50781,-2.48047 0.52734,-1.19141 1.5625,-2.16797 0.97656,-0.9375 2.53906,-1.52344 1.58203,-0.58593 3.47656,-0.58593 3.37891,0 5.46875,1.71875 2.08985,1.69921 2.08985,4.3164 0,0.85938 -0.23438,1.95313 -0.23437,1.07422 -0.80078,1.93359 -0.625,0.95703 -1.77734,1.83594 -1.15235,0.8789 -2.98828,1.5039 l 7.24609,7.0703196 q 0.27344,-0.78125 0.41016,-1.71875 0.13672,-0.9374996 0.15625,-1.9531296 0.0391,-1.09375 0.0195,-2.4414 0,-1.34766 0,-2.28516 l 3.80859,0 z" />
    <path
       inkscape:connector-curvature="0"
       id="path3369"
       style="font-style:normal;font-weight:normal;font-size:medium;line-height:125%;font-family:sans-serif;letter-spacing:0px;word-spacing:0px;fill:#ff0000;fill-opacity:1;stroke:#000000;stroke-width:1;stroke-linecap:butt;stroke-linejoin:miter;stroke-miterlimit:4;stroke-dasharray:none;stroke-opacity:1"
       d="m -37.81808,-13.435221 q 0,3.9648396 -1.73829,7.1874996 -1.71875,3.22265 -4.58984,5 -1.99219,1.23047 -4.45312,1.77734 -2.44141,0.54688 -6.44532,0.54688 l -7.34375,0 0,-29.0820396 7.26563,0 q 4.25781,0 6.75781,0.625 2.51953,0.60547 4.25781,1.67969 2.96875,1.85547 4.62891,4.94141 1.66016,3.08594 1.66016,7.32422 z m -4.04297,-0.0586 q 0,-3.41797 -1.19141,-5.76172 -1.19141,-2.34375 -3.55469,-3.6914 -1.71875,-0.97656 -3.65234,-1.34766 -1.93359,-0.39062 -4.62891,-0.39062 l -3.63281,0 0,22.4413996 3.63281,0 q 2.79297,0 4.86328,-0.41015 2.08985,-0.41016 3.82813,-1.52344 2.16797,-1.38672 3.24219,-3.65234 1.09375,-2.2656296 1.09375,-5.6640696 z" />
    <path
       inkscape:connector-curvature="0"
       id="path3371"
       style="font-style:normal;font-weight:normal;font-size:medium;line-height:125%;font-family:sans-serif;letter-spacing:0px;word-spacing:0px;fill:#ff0000;fill-opacity:1;stroke:#000000;stroke-width:1;stroke-linecap:butt;stroke-linejoin:miter;stroke-miterlimit:4;stroke-dasharray:none;stroke-opacity:1"
       d="m -27.87668,-24.392251 -4.14062,0 0,-3.8086 4.14062,0 0,3.8086 z m -0.23437,25.4687496 -3.67188,0 0,-21.8164096 3.67188,0 0,21.8164096 z" />
    <path
       inkscape:connector-curvature="0"
       id="path3373"
       style="font-style:normal;font-weight:normal;font-size:medium;line-height:125%;font-family:sans-serif;letter-spacing:0px;word-spacing:0px;fill:#ff0000;fill-opacity:1;stroke:#000000;stroke-width:1;stroke-linecap:butt;stroke-linejoin:miter;stroke-miterlimit:4;stroke-dasharray:none;stroke-opacity:1"
       d="m -5.37668,-5.2125714 q 0,2.98828 -2.48047,4.90235 -2.46093,1.91406 -6.73828,1.91406 -2.42187,0 -4.45312,-0.56641 -2.01172,-0.58593 -3.37891,-1.26953 l 0,-4.12109 0.19531,0 q 1.73828,1.30859 3.86719,2.08984 2.12891,0.76172 4.08203,0.76172 2.42188,0 3.78906,-0.78125 1.36719,-0.78125 1.36719,-2.46094 0,-1.28906 -0.74219,-1.95312 -0.74218,-0.66406 -2.85156,-1.13281 -0.78125,-0.17579 -2.05078,-0.41016 -1.25,-0.23438 -2.28516,-0.50781 -2.87109,-0.76172 -4.08203,-2.2265696 -1.1914,-1.48437 -1.1914,-3.63281 0,-1.34765 0.54687,-2.53906 0.56641,-1.19141 1.69922,-2.12891 1.09375,-0.91797 2.77344,-1.44531 1.69922,-0.54687 3.78906,-0.54687 1.95313,0 3.94531,0.48828 2.01172,0.46875 3.33985,1.15234 l 0,3.92578 -0.19532,0 q -1.40625,-1.03515 -3.41796,-1.73828 -2.01172,-0.72266 -3.94532,-0.72266 -2.01172,0 -3.39843,0.78125 -1.38672,0.76172 -1.38672,2.28516 0,1.34766 0.83984,2.03125 0.82031,0.68359 2.65625,1.11328 1.01563,0.23438 2.26563,0.46875 1.26953,0.23438 2.10937,0.42969 2.55859,0.58594 3.94531,2.0117196 1.38672,1.44531 1.38672,3.82812 z" />
    <path
       inkscape:connector-curvature="0"
       id="path3375"
       style="font-style:normal;font-weight:normal;font-size:medium;line-height:125%;font-family:sans-serif;letter-spacing:0px;word-spacing:0px;fill:#ff0000;fill-opacity:1;stroke:#000000;stroke-width:1;stroke-linecap:butt;stroke-linejoin:miter;stroke-miterlimit:4;stroke-dasharray:none;stroke-opacity:1"
       d="m 11.22488,0.8811786 q -1.03515,0.27344 -2.26562,0.44922 -1.21094,0.17578 -2.16797,0.17578 -3.33984,0 -5.07812,-1.79687 -1.73829,-1.79688 -1.73829,-5.76172 l 0,-11.6015596 -2.48046,0 0,-3.08594 2.48046,0 0,-6.26953 3.67188,0 0,6.26953 7.57812,0 0,3.08594 -7.57812,0 0,9.9413996 q 0,1.71875 0.0781,2.69532 0.0781,0.95703 0.54688,1.79687 0.42969,0.78125 1.17187,1.15234 0.76172,0.35157 2.30469,0.35157 0.89844,0 1.875,-0.25391 0.97656,-0.27344 1.40625,-0.44922 l 0.19531,0 0,3.30078 z" />
    <path
       inkscape:connector-curvature="0"
       id="path3377"
       style="font-style:normal;font-weight:normal;font-size:medium;line-height:125%;font-family:sans-serif;letter-spacing:0px;word-spacing:0px;fill:#ff0000;fill-opacity:1;stroke:#000000;stroke-width:1;stroke-linecap:butt;stroke-linejoin:miter;stroke-miterlimit:4;stroke-dasharray:none;stroke-opacity:1"
       d="m 29.29129,-16.736001 -0.19531,0 q -0.82031,-0.19532 -1.60156,-0.27344 -0.76172,-0.0977 -1.81641,-0.0977 -1.69922,0 -3.28125,0.76172 -1.58203,0.74219 -3.04688,1.93359 l 0,15.4882896 -3.67187,0 0,-21.8164096 3.67187,0 0,3.22266 q 2.1875,-1.75782 3.84766,-2.48047 1.67969,-0.74219 3.41797,-0.74219 0.95703,0 1.38672,0.0586 0.42969,0.0391 1.28906,0.17578 l 0,3.76954 z" />
    <path
       inkscape:connector-curvature="0"
       id="path3379"
       style="font-style:normal;font-weight:normal;font-size:medium;line-height:125%;font-family:sans-serif;letter-spacing:0px;word-spacing:0px;fill:#ff0000;fill-opacity:1;stroke:#000000;stroke-width:1;stroke-linecap:butt;stroke-linejoin:miter;stroke-miterlimit:4;stroke-dasharray:none;stroke-opacity:1"
       d="m 36.7327,-24.392251 -4.14063,0 0,-3.8086 4.14063,0 0,3.8086 z m -0.23438,25.4687496 -3.67187,0 0,-21.8164096 3.67187,0 0,21.8164096 z" />
    <path
       inkscape:connector-curvature="0"
       id="path3381"
       style="font-style:normal;font-weight:normal;font-size:medium;line-height:125%;font-family:sans-serif;letter-spacing:0px;word-spacing:0px;fill:#ff0000;fill-opacity:1;stroke:#000000;stroke-width:1;stroke-linecap:butt;stroke-linejoin:miter;stroke-miterlimit:4;stroke-dasharray:none;stroke-opacity:1"
       d="m 59.77957,-0.2906914 q -1.83594,0.8789 -3.49609,1.36719 -1.64063,0.48828 -3.4961,0.48828 -2.36328,0 -4.33593,-0.6836 -1.97266,-0.70312 -3.37891,-2.10937 -1.42578,-1.40625 -2.20703,-3.55469 -0.78125,-2.14844 -0.78125,-5.01953 0,-5.3515596 2.92969,-8.3984396 2.94922,-3.04687 7.77343,-3.04687 1.875,0 3.67188,0.52734 1.81641,0.52734 3.32031,1.28906 l 0,4.08203 -0.19531,0 q -1.67969,-1.30859 -3.47656,-2.01171 -1.77735,-0.70313 -3.47657,-0.70313 -3.125,0 -4.9414,2.10938 -1.79688,2.08984 -1.79688,6.1523396 0,3.94531 1.75782,6.07422 1.77734,2.10937 4.98046,2.10937 1.11329,0 2.26563,-0.29297 1.15234,-0.29296 2.07031,-0.76171 0.80078,-0.41016 1.50391,-0.85938 0.70312,-0.46875 1.11328,-0.80078 l 0.19531,0 0,4.04297 z" />
    <path
       inkscape:connector-curvature="0"
       id="path3383"
       style="font-style:normal;font-weight:normal;font-size:medium;line-height:125%;font-family:sans-serif;letter-spacing:0px;word-spacing:0px;fill:#ff0000;fill-opacity:1;stroke:#000000;stroke-width:1;stroke-linecap:butt;stroke-linejoin:miter;stroke-miterlimit:4;stroke-dasharray:none;stroke-opacity:1"
       d="m 75.83426,0.8811786 q -1.03516,0.27344 -2.26563,0.44922 -1.21093,0.17578 -2.16796,0.17578 -3.33985,0 -5.07813,-1.79687 -1.73828,-1.79688 -1.73828,-5.76172 l 0,-11.6015596 -2.48047,0 0,-3.08594 2.48047,0 0,-6.26953 3.67187,0 0,6.26953 7.57813,0 0,3.08594 -7.57813,0 0,9.9413996 q 0,1.71875 0.0781,2.69532 0.0781,0.95703 0.54687,1.79687 0.42969,0.78125 1.17188,1.15234 0.76172,0.35157 2.30469,0.35157 0.89843,0 1.875,-0.25391 0.97656,-0.27344 1.40625,-0.44922 l 0.19531,0 0,3.30078 z" />
    <path
       inkscape:connector-curvature="0"
       id="path3385"
       style="font-style:normal;font-weight:normal;font-size:medium;line-height:125%;font-family:sans-serif;letter-spacing:0px;word-spacing:0px;fill:#ff0000;fill-opacity:1;stroke:#000000;stroke-width:1;stroke-linecap:butt;stroke-linejoin:miter;stroke-miterlimit:4;stroke-dasharray:none;stroke-opacity:1"
       d="m -237.20424,33.967119 q -1.07422,0.46875 -1.95313,0.87891 -0.85937,0.41015 -2.26562,0.85937 -1.19141,0.3711 -2.59766,0.625 -1.38672,0.27344 -3.0664,0.27344 -3.16407,0 -5.76172,-0.87891 -2.57813,-0.89843 -4.49219,-2.79297 -1.875,-1.85546 -2.92969,-4.70703 -1.05469,-2.87109 -1.05469,-6.66015 0,-3.59375 1.01563,-6.42578 1.01562,-2.83204 2.92969,-4.78516 1.85547,-1.8945304 4.47265,-2.8906304 2.63672,-0.99609 5.83985,-0.99609 2.34375,0 4.66797,0.56641 2.34375,0.5664 5.19531,1.99218 l 0,4.5898504 -0.29297,0 q -2.40234,-2.01172 -4.76563,-2.92969 -2.36328,-0.9179704 -5.05859,-0.9179704 -2.20703,0 -3.98437,0.7226604 -1.75782,0.70312 -3.14454,2.20703 -1.34765,1.46484 -2.10937,3.71094 -0.74219,2.22656 -0.74219,5.15625 0,3.0664 0.82031,5.27343 0.83985,2.20704 2.14844,3.59375 1.36719,1.44532 3.1836,2.14844 1.83593,0.6836 3.86718,0.6836 2.79297,0 5.23438,-0.95704 2.4414,-0.95703 4.57031,-2.87109 l 0.27344,0 0,4.53125 z" />
    <path
       inkscape:connector-curvature="0"
       id="path3387"
       style="font-style:normal;font-weight:normal;font-size:medium;line-height:125%;font-family:sans-serif;letter-spacing:0px;word-spacing:0px;fill:#ff0000;fill-opacity:1;stroke:#000000;stroke-width:1;stroke-linecap:butt;stroke-linejoin:miter;stroke-miterlimit:4;stroke-dasharray:none;stroke-opacity:1"
       d="m -215.03627,36.076499 -3.65234,0 0,-2.32422 q -0.48829,0.33203 -1.32813,0.9375 -0.82031,0.58593 -1.60156,0.9375 -0.91797,0.44922 -2.10938,0.74218 -1.1914,0.3125 -2.79297,0.3125 -2.94921,0 -5,-1.95312 -2.05078,-1.95313 -2.05078,-4.98047 0,-2.48047 1.05469,-4.00391 1.07422,-1.54296 3.04688,-2.42187 1.99218,-0.87891 4.78515,-1.19141 2.79297,-0.3125 5.9961,-0.46875 l 0,-0.5664 q 0,-1.25 -0.44922,-2.07032 -0.42969,-0.82031 -1.25,-1.28906 -0.78125,-0.44922 -1.875,-0.60547 -1.09375,-0.15625 -2.28516,-0.15625 -1.44531,0 -3.22266,0.39063 -1.77734,0.37109 -3.67187,1.09375 l -0.19531,0 0,-3.73047 q 1.07422,-0.29297 3.10547,-0.64453 2.03125,-0.35156 4.0039,-0.35156 2.30469,0 4.00391,0.39062 1.71875,0.37109 2.96875,1.28906 1.23047,0.89844 1.875,2.32422 0.64453,1.42578 0.64453,3.53516 l 0,14.80469 z m -3.65234,-5.3711 0,-6.07422 q -1.67969,0.0977 -3.96485,0.29297 -2.26562,0.19531 -3.59375,0.56641 -1.58203,0.44922 -2.55859,1.40625 -0.97656,0.9375 -0.97656,2.59765 0,1.875 1.13281,2.83204 1.13281,0.9375 3.45703,0.9375 1.93359,0 3.53516,-0.74219 1.60156,-0.76172 2.96875,-1.81641 z" />
    <path
       inkscape:connector-curvature="0"
       id="path3389"
       style="font-style:normal;font-weight:normal;font-size:medium;line-height:125%;font-family:sans-serif;letter-spacing:0px;word-spacing:0px;fill:#ff0000;fill-opacity:1;stroke:#000000;stroke-width:1;stroke-linecap:butt;stroke-linejoin:miter;stroke-miterlimit:4;stroke-dasharray:none;stroke-opacity:1"
       d="m -176.09096,36.076499 -3.67187,0 0,-12.42188 q 0,-1.40625 -0.13672,-2.71484 -0.11719,-1.3086 -0.52735,-2.08985 -0.44921,-0.83984 -1.28906,-1.26953 -0.83984,-0.42969 -2.42187,-0.42969 -1.54297,0 -3.08594,0.78125 -1.54297,0.76172 -3.08594,1.95313 0.0586,0.44922 0.0977,1.05469 0.0391,0.58593 0.0391,1.17187 l 0,13.96485 -3.67187,0 0,-12.42188 q 0,-1.44531 -0.13672,-2.73437 -0.11719,-1.3086 -0.52735,-2.08985 -0.44922,-0.83984 -1.28906,-1.25 -0.83984,-0.42969 -2.42187,-0.42969 -1.50391,0 -3.02735,0.74219 -1.5039,0.74219 -3.00781,1.89453 l 0,16.28907 -3.67188,0 0,-21.81641 3.67188,0 0,2.42187 q 1.71875,-1.42578 3.41797,-2.22656 1.71875,-0.80078 3.65234,-0.80078 2.22656,0 3.76953,0.9375 1.5625,0.9375 2.32422,2.59766 2.22656,-1.875 4.0625,-2.69532 1.83594,-0.83984 3.92578,-0.83984 3.59375,0 5.29297,2.1875 1.71875,2.16797 1.71875,6.07422 l 0,14.16016 z" />
    <path
       inkscape:connector-curvature="0"
       id="path3391"
       style="font-style:normal;font-weight:normal;font-size:medium;line-height:125%;font-family:sans-serif;letter-spacing:0px;word-spacing:0px;fill:#ff0000;fill-opacity:1;stroke:#000000;stroke-width:1;stroke-linecap:butt;stroke-linejoin:miter;stroke-miterlimit:4;stroke-dasharray:none;stroke-opacity:1"
       d="m -150.75893,25.549149 -16.07422,0 q 0,2.01172 0.60547,3.51563 0.60547,1.48437 1.66016,2.4414 1.01562,0.9375 2.40234,1.40625 1.40625,0.46875 3.08594,0.46875 2.22656,0 4.47266,-0.8789 2.26562,-0.89844 3.22265,-1.75782 l 0.19532,0 0,4.00391 q -1.85547,0.78125 -3.78907,1.30859 -1.93359,0.52735 -4.0625,0.52735 -5.42968,0 -8.47656,-2.92969 -3.04687,-2.94922 -3.04687,-8.35937 0,-5.35157 2.91015,-8.4961 2.92969,-3.14453 7.69531,-3.14453 4.41407,0 6.79688,2.57813 2.40234,2.57812 2.40234,7.32421 l 0,1.99219 z m -3.57422,-2.8125 q -0.0195,-2.89062 -1.46484,-4.47265 -1.42578,-1.58204 -4.35547,-1.58204 -2.94922,0 -4.70703,1.73829 -1.73828,1.73828 -1.97266,4.3164 l 12.5,0 z" />
    <path
       inkscape:connector-curvature="0"
       id="path3393"
       style="font-style:normal;font-weight:normal;font-size:medium;line-height:125%;font-family:sans-serif;letter-spacing:0px;word-spacing:0px;fill:#ff0000;fill-opacity:1;stroke:#000000;stroke-width:1;stroke-linecap:butt;stroke-linejoin:miter;stroke-miterlimit:4;stroke-dasharray:none;stroke-opacity:1"
       d="m -131.57924,18.263999 -0.19531,0 q -0.82031,-0.19532 -1.60156,-0.27344 -0.76172,-0.0977 -1.81641,-0.0977 -1.69922,0 -3.28125,0.76172 -1.58203,0.74219 -3.04688,1.93359 l 0,15.48829 -3.67187,0 0,-21.81641 3.67187,0 0,3.22266 q 2.1875,-1.75782 3.84766,-2.48047 1.67969,-0.74219 3.41797,-0.74219 0.95703,0 1.38672,0.0586 0.42969,0.0391 1.28906,0.17578 l 0,3.76954 z" />
    <path
       inkscape:connector-curvature="0"
       id="path3395"
       style="font-style:normal;font-weight:normal;font-size:medium;line-height:125%;font-family:sans-serif;letter-spacing:0px;word-spacing:0px;fill:#ff0000;fill-opacity:1;stroke:#000000;stroke-width:1;stroke-linecap:butt;stroke-linejoin:miter;stroke-miterlimit:4;stroke-dasharray:none;stroke-opacity:1"
       d="m -111.13002,36.076499 -3.65234,0 0,-2.32422 q -0.48829,0.33203 -1.32813,0.9375 -0.82031,0.58593 -1.60156,0.9375 -0.91797,0.44922 -2.10938,0.74218 -1.1914,0.3125 -2.79297,0.3125 -2.94921,0 -5,-1.95312 -2.05078,-1.95313 -2.05078,-4.98047 0,-2.48047 1.05469,-4.00391 1.07422,-1.54296 3.04688,-2.42187 1.99218,-0.87891 4.78515,-1.19141 2.79297,-0.3125 5.9961,-0.46875 l 0,-0.5664 q 0,-1.25 -0.44922,-2.07032 -0.42969,-0.82031 -1.25,-1.28906 -0.78125,-0.44922 -1.875,-0.60547 -1.09375,-0.15625 -2.28516,-0.15625 -1.44531,0 -3.22266,0.39063 -1.77734,0.37109 -3.67187,1.09375 l -0.19531,0 0,-3.73047 q 1.07422,-0.29297 3.10547,-0.64453 2.03125,-0.35156 4.0039,-0.35156 2.30469,0 4.00391,0.39062 1.71875,0.37109 2.96875,1.28906 1.23047,0.89844 1.875,2.32422 0.64453,1.42578 0.64453,3.53516 l 0,14.80469 z m -3.65234,-5.3711 0,-6.07422 q -1.67969,0.0977 -3.96485,0.29297 -2.26562,0.19531 -3.59375,0.56641 -1.58203,0.44922 -2.55859,1.40625 -0.97656,0.9375 -0.97656,2.59765 0,1.875 1.13281,2.83204 1.13281,0.9375 3.45703,0.9375 1.93359,0 3.53516,-0.74219 1.60156,-0.76172 2.96875,-1.81641 z" />
    <path
       inkscape:connector-curvature="0"
       id="path3397"
       style="font-style:normal;font-weight:normal;font-size:medium;line-height:125%;font-family:sans-serif;letter-spacing:0px;word-spacing:0px;fill:#ff0000;fill-opacity:1;stroke:#000000;stroke-width:1;stroke-linecap:butt;stroke-linejoin:miter;stroke-miterlimit:4;stroke-dasharray:none;stroke-opacity:1"
       d="m -67.20424,33.967119 q -1.07422,0.46875 -1.95312,0.87891 -0.85938,0.41015 -2.26563,0.85937 -1.19141,0.3711 -2.59766,0.625 -1.38671,0.27344 -3.0664,0.27344 -3.16406,0 -5.76172,-0.87891 -2.57813,-0.89843 -4.49219,-2.79297 -1.875,-1.85546 -2.92969,-4.70703 -1.05468,-2.87109 -1.05468,-6.66015 0,-3.59375 1.01562,-6.42578 1.01563,-2.83204 2.92969,-4.78516 1.85547,-1.8945304 4.47266,-2.8906304 2.63671,-0.99609 5.83984,-0.99609 2.34375,0 4.66797,0.56641 2.34375,0.5664 5.19531,1.99218 l 0,4.5898504 -0.29297,0 q -2.40234,-2.01172 -4.76562,-2.92969 -2.36328,-0.9179704 -5.0586,-0.9179704 -2.20703,0 -3.98437,0.7226604 -1.75781,0.70312 -3.14453,2.20703 -1.34766,1.46484 -2.10938,3.71094 -0.74219,2.22656 -0.74219,5.15625 0,3.0664 0.82032,5.27343 0.83984,2.20704 2.14843,3.59375 1.36719,1.44532 3.1836,2.14844 1.83594,0.6836 3.86719,0.6836 2.79296,0 5.23437,-0.95704 2.44141,-0.95703 4.57031,-2.87109 l 0.27344,0 0,4.53125 z" />
    <path
       inkscape:connector-curvature="0"
       id="path3399"
       style="font-style:normal;font-weight:normal;font-size:medium;line-height:125%;font-family:sans-serif;letter-spacing:0px;word-spacing:0px;fill:#ff0000;fill-opacity:1;stroke:#000000;stroke-width:1;stroke-linecap:butt;stroke-linejoin:miter;stroke-miterlimit:4;stroke-dasharray:none;stroke-opacity:1"
       d="m -58.27846,36.076499 -3.67187,0 0,-30.3906304 3.67187,0 0,30.3906304 z" />
    <path
       inkscape:connector-curvature="0"
       id="path3401"
       style="font-style:normal;font-weight:normal;font-size:medium;line-height:125%;font-family:sans-serif;letter-spacing:0px;word-spacing:0px;fill:#ff0000;fill-opacity:1;stroke:#000000;stroke-width:1;stroke-linecap:butt;stroke-linejoin:miter;stroke-miterlimit:4;stroke-dasharray:none;stroke-opacity:1"
       d="m -33.04408,36.076499 -3.67188,0 0,-2.42188 q -1.85547,1.46484 -3.55469,2.24609 -1.69921,0.78125 -3.75,0.78125 -3.4375,0 -5.35156,-2.08984 -1.91406,-2.10937 -1.91406,-6.17187 l 0,-14.16016 3.67187,0 0,12.42187 q 0,1.66016 0.15625,2.85157 0.15625,1.17187 0.66407,2.01172 0.52734,0.85937 1.36718,1.25 0.83985,0.39062 2.44141,0.39062 1.42578,0 3.10547,-0.74219 1.69922,-0.74218 3.16406,-1.89453 l 0,-16.28906 3.67188,0 0,21.81641 z" />
    <path
       inkscape:connector-curvature="0"
       id="path3403"
       style="font-style:normal;font-weight:normal;font-size:medium;line-height:125%;font-family:sans-serif;letter-spacing:0px;word-spacing:0px;fill:#ff0000;fill-opacity:1;stroke:#000000;stroke-width:1;stroke-linecap:butt;stroke-linejoin:miter;stroke-miterlimit:4;stroke-dasharray:none;stroke-opacity:1"
       d="m -6.6183,25.002279 q 0,2.73437 -0.78125,4.92187 -0.76172,2.1875 -2.07031,3.67188 -1.38672,1.54297 -3.04688,2.32422 -1.66016,0.76171 -3.65234,0.76171 -1.85547,0 -3.24219,-0.44921 -1.38672,-0.42969 -2.73438,-1.17188 l -0.23437,1.01563 -3.4375,0 0,-30.3906304 3.67187,0 0,10.8593804 q 1.54297,-1.26954 3.28125,-2.07032 1.73829,-0.82031 3.90625,-0.82031 3.86719,0 6.09375,2.96875 2.2461,2.96875 2.2461,8.37891 z m -3.78906,0.0977 q 0,-3.90625 -1.28907,-5.91797 -1.28906,-2.03125 -4.16015,-2.03125 -1.60157,0 -3.24219,0.70313 -1.64063,0.68359 -3.04688,1.77734 l 0,12.5 q 1.5625,0.70313 2.67579,0.97657 1.13281,0.27343 2.55859,0.27343 3.04687,0 4.76562,-1.99218 1.73829,-2.01172 1.73829,-6.28907 z" />
  </g>
</svg>
